<svg width="89" height="37" viewBox="0 0 89 37" fill="none" xmlns="http://www.w3.org/2000/svg">
<rect x="0.5" y="0.5" width="88" height="35.7867" rx="6.5" fill="white" stroke="#005005"/>
<path d="M28.7109 13.625V25H27.75V13.625H28.7109ZM34.0078 18.8594V19.6875H28.3906V18.8594H34.0078ZM34.7969 13.625V14.4531H28.3906V13.625H34.7969ZM36.7266 13.625H40.4219C41.2083 13.625 41.8906 13.7526 42.4688 14.0078C43.0469 14.263 43.4922 14.6406 43.8047 15.1406C44.1224 15.6354 44.2812 16.2448 44.2812 16.9688C44.2812 17.5052 44.1667 17.9922 43.9375 18.4297C43.7135 18.8672 43.4036 19.2344 43.0078 19.5312C42.612 19.8229 42.1536 20.0234 41.6328 20.1328L41.2969 20.2578H37.3516L37.3359 19.4375H40.6406C41.2344 19.4375 41.7292 19.3229 42.125 19.0938C42.5208 18.8646 42.8177 18.5625 43.0156 18.1875C43.2188 17.8073 43.3203 17.401 43.3203 16.9688C43.3203 16.4531 43.2083 16.0078 42.9844 15.6328C42.7656 15.2526 42.4401 14.9609 42.0078 14.7578C41.5755 14.5547 41.0469 14.4531 40.4219 14.4531H37.6875V25H36.7266V13.625ZM43.75 25L40.8047 19.9141L41.8359 19.9062L44.7734 24.8984V25H43.75ZM53.9922 24.1797V25H47.5938V24.1797H53.9922ZM47.8828 13.625V25H46.9219V13.625H47.8828ZM53.1953 18.7266V19.5469H47.5938V18.7266H53.1953ZM53.9531 13.625V14.4531H47.5938V13.625H53.9531ZM63.1016 24.1797V25H56.7031V24.1797H63.1016ZM56.9922 13.625V25H56.0312V13.625H56.9922ZM62.3047 18.7266V19.5469H56.7031V18.7266H62.3047ZM63.0625 13.625V14.4531H56.7031V13.625H63.0625Z" fill="#1B5E20"/>
</svg>
