<svg width="75" height="31" viewBox="0 0 75 31" fill="none" xmlns="http://www.w3.org/2000/svg">
<rect x="0.5" y="0.5" width="74" height="30" rx="15" fill="white" stroke="#005005"/>
<path d="M24.8047 10.4688V19H24.084V10.4688H24.8047ZM28.7773 14.3945V15.0156H24.5645V14.3945H28.7773ZM29.3691 10.4688V11.0898H24.5645V10.4688H29.3691ZM30.8164 10.4688H33.5879C34.1777 10.4688 34.6895 10.5645 35.123 10.7559C35.5566 10.9473 35.8906 11.2305 36.125 11.6055C36.3633 11.9766 36.4824 12.4336 36.4824 12.9766C36.4824 13.3789 36.3965 13.7441 36.2246 14.0723C36.0566 14.4004 35.8242 14.6758 35.5273 14.8984C35.2305 15.1172 34.8867 15.2676 34.4961 15.3496L34.2441 15.4434H31.2852L31.2734 14.8281H33.752C34.1973 14.8281 34.5684 14.7422 34.8652 14.5703C35.1621 14.3984 35.3848 14.1719 35.5332 13.8906C35.6855 13.6055 35.7617 13.3008 35.7617 12.9766C35.7617 12.5898 35.6777 12.2559 35.5098 11.9746C35.3457 11.6895 35.1016 11.4707 34.7773 11.3184C34.4531 11.166 34.0566 11.0898 33.5879 11.0898H31.5371V19H30.8164V10.4688ZM36.084 19L33.875 15.1855L34.6484 15.1797L36.8516 18.9238V19H36.084ZM43.7656 18.3848V19H38.9668V18.3848H43.7656ZM39.1836 10.4688V19H38.4629V10.4688H39.1836ZM43.168 14.2949V14.9102H38.9668V14.2949H43.168ZM43.7363 10.4688V11.0898H38.9668V10.4688H43.7363ZM50.5977 18.3848V19H45.7988V18.3848H50.5977ZM46.0156 10.4688V19H45.2949V10.4688H46.0156ZM50 14.2949V14.9102H45.7988V14.2949H50ZM50.5684 10.4688V11.0898H45.7988V10.4688H50.5684Z" fill="#1B5E20"/>
</svg>
