<svg width="75" height="31" viewBox="0 0 75 31" fill="none" xmlns="http://www.w3.org/2000/svg">
<rect x="0.5" y="0.5" width="74" height="30" rx="15" fill="white" stroke="#B3B700"/>
<path d="M14.9844 15.5254H12.5527V14.9102H14.9844C15.4922 14.9102 15.9043 14.8281 16.2207 14.6641C16.541 14.4961 16.7734 14.2695 16.918 13.9844C17.0664 13.6992 17.1406 13.3789 17.1406 13.0234C17.1406 12.6758 17.0664 12.3555 16.918 12.0625C16.7734 11.7695 16.541 11.5352 16.2207 11.3594C15.9043 11.1797 15.4922 11.0898 14.9844 11.0898H12.8047V19H12.084V10.4688H14.9844C15.6094 10.4688 16.1348 10.5762 16.5605 10.791C16.9902 11.0059 17.3145 11.3047 17.5332 11.6875C17.752 12.0703 17.8613 12.5117 17.8613 13.0117C17.8613 13.5352 17.752 13.9863 17.5332 14.3652C17.3145 14.7402 16.9922 15.0273 16.5664 15.2266C16.1406 15.4258 15.6133 15.5254 14.9844 15.5254ZM19.4609 10.4688H22.2324C22.8223 10.4688 23.334 10.5645 23.7676 10.7559C24.2012 10.9473 24.5352 11.2305 24.7695 11.6055C25.0078 11.9766 25.127 12.4336 25.127 12.9766C25.127 13.3789 25.041 13.7441 24.8691 14.0723C24.7012 14.4004 24.4688 14.6758 24.1719 14.8984C23.875 15.1172 23.5312 15.2676 23.1406 15.3496L22.8887 15.4434H19.9297L19.918 14.8281H22.3965C22.8418 14.8281 23.2129 14.7422 23.5098 14.5703C23.8066 14.3984 24.0293 14.1719 24.1777 13.8906C24.3301 13.6055 24.4062 13.3008 24.4062 12.9766C24.4062 12.5898 24.3223 12.2559 24.1543 11.9746C23.9902 11.6895 23.7461 11.4707 23.4219 11.3184C23.0977 11.166 22.7012 11.0898 22.2324 11.0898H20.1816V19H19.4609V10.4688ZM24.7285 19L22.5195 15.1855L23.293 15.1797L25.4961 18.9238V19H24.7285ZM32.4102 18.3848V19H27.6113V18.3848H32.4102ZM27.8281 10.4688V19H27.1074V10.4688H27.8281ZM31.8125 14.2949V14.9102H27.6113V14.2949H31.8125ZM32.3809 10.4688V11.0898H27.6113V10.4688H32.3809ZM34.1621 10.4688H34.8887L38.041 17.9805L41.1992 10.4688H41.9199L38.3164 19H37.7656L34.1621 10.4688ZM33.9395 10.4688H34.5781L34.6543 15.2734V19H33.9395V10.4688ZM41.5156 10.4688H42.1543V19H41.4336V15.2734L41.5156 10.4688ZM45.2012 10.4688V19H44.4805V10.4688H45.2012ZM52.6719 10.4688H53.3926V16.2461C53.3926 16.8867 53.2578 17.4199 52.9883 17.8457C52.7188 18.2715 52.3555 18.5898 51.8984 18.8008C51.4453 19.0117 50.9434 19.1172 50.3926 19.1172C49.8262 19.1172 49.3164 19.0117 48.8633 18.8008C48.4102 18.5898 48.0508 18.2715 47.7852 17.8457C47.5234 17.4199 47.3926 16.8867 47.3926 16.2461V10.4688H48.1074V16.2461C48.1074 16.7422 48.2051 17.1582 48.4004 17.4941C48.5957 17.8301 48.8652 18.082 49.209 18.25C49.5527 18.418 49.9473 18.502 50.3926 18.502C50.834 18.502 51.2266 18.418 51.5703 18.25C51.9141 18.082 52.1836 17.8301 52.3789 17.4941C52.5742 17.1582 52.6719 16.7422 52.6719 16.2461V10.4688ZM55.6426 10.4688H56.3691L59.5215 17.9805L62.6797 10.4688H63.4004L59.7969 19H59.2461L55.6426 10.4688ZM55.4199 10.4688H56.0586L56.1348 15.2734V19H55.4199V10.4688ZM62.9961 10.4688H63.6348V19H62.9141V15.2734L62.9961 10.4688Z" fill="#B3B700"/>
</svg>
