<svg width="94" height="39" viewBox="0 0 94 39" fill="none" xmlns="http://www.w3.org/2000/svg">
<rect x="0.5" y="0.5" width="93" height="38" rx="6.5" fill="white" stroke="#B3B700"/>
<path d="M18.3125 21.3672H15.0703V20.5469H18.3125C18.9896 20.5469 19.5391 20.4375 19.9609 20.2188C20.388 19.9948 20.6979 19.6927 20.8906 19.3125C21.0885 18.9323 21.1875 18.5052 21.1875 18.0312C21.1875 17.5677 21.0885 17.1406 20.8906 16.75C20.6979 16.3594 20.388 16.0469 19.9609 15.8125C19.5391 15.5729 18.9896 15.4531 18.3125 15.4531H15.4062V26H14.4453V14.625H18.3125C19.1458 14.625 19.8464 14.7682 20.4141 15.0547C20.987 15.3411 21.4193 15.7396 21.7109 16.25C22.0026 16.7604 22.1484 17.349 22.1484 18.0156C22.1484 18.7135 22.0026 19.3151 21.7109 19.8203C21.4193 20.3203 20.9896 20.7031 20.4219 20.9688C19.8542 21.2344 19.151 21.3672 18.3125 21.3672ZM24.2812 14.625H27.9766C28.763 14.625 29.4453 14.7526 30.0234 15.0078C30.6016 15.263 31.0469 15.6406 31.3594 16.1406C31.6771 16.6354 31.8359 17.2448 31.8359 17.9688C31.8359 18.5052 31.7214 18.9922 31.4922 19.4297C31.2682 19.8672 30.9583 20.2344 30.5625 20.5312C30.1667 20.8229 29.7083 21.0234 29.1875 21.1328L28.8516 21.2578H24.9062L24.8906 20.4375H28.1953C28.7891 20.4375 29.2839 20.3229 29.6797 20.0938C30.0755 19.8646 30.3724 19.5625 30.5703 19.1875C30.7734 18.8073 30.875 18.401 30.875 17.9688C30.875 17.4531 30.763 17.0078 30.5391 16.6328C30.3203 16.2526 29.9948 15.9609 29.5625 15.7578C29.1302 15.5547 28.6016 15.4531 27.9766 15.4531H25.2422V26H24.2812V14.625ZM31.3047 26L28.3594 20.9141L29.3906 20.9062L32.3281 25.8984V26H31.3047ZM41.5469 25.1797V26H35.1484V25.1797H41.5469ZM35.4375 14.625V26H34.4766V14.625H35.4375ZM40.75 19.7266V20.5469H35.1484V19.7266H40.75ZM41.5078 14.625V15.4531H35.1484V14.625H41.5078ZM43.8828 14.625H44.8516L49.0547 24.6406L53.2656 14.625H54.2266L49.4219 26H48.6875L43.8828 14.625ZM43.5859 14.625H44.4375L44.5391 21.0312V26H43.5859V14.625ZM53.6875 14.625H54.5391V26H53.5781V21.0312L53.6875 14.625ZM58.6016 14.625V26H57.6406V14.625H58.6016ZM68.5625 14.625H69.5234V22.3281C69.5234 23.1823 69.3438 23.8932 68.9844 24.4609C68.625 25.0286 68.1406 25.4531 67.5312 25.7344C66.9271 26.0156 66.2578 26.1562 65.5234 26.1562C64.7682 26.1562 64.0885 26.0156 63.4844 25.7344C62.8802 25.4531 62.401 25.0286 62.0469 24.4609C61.6979 23.8932 61.5234 23.1823 61.5234 22.3281V14.625H62.4766V22.3281C62.4766 22.9896 62.6068 23.5443 62.8672 23.9922C63.1276 24.4401 63.487 24.776 63.9453 25C64.4036 25.224 64.9297 25.3359 65.5234 25.3359C66.112 25.3359 66.6354 25.224 67.0938 25C67.5521 24.776 67.9115 24.4401 68.1719 23.9922C68.4323 23.5443 68.5625 22.9896 68.5625 22.3281V14.625ZM72.5234 14.625H73.4922L77.6953 24.6406L81.9062 14.625H82.8672L78.0625 26H77.3281L72.5234 14.625ZM72.2266 14.625H73.0781L73.1797 21.0312V26H72.2266V14.625ZM82.3281 14.625H83.1797V26H82.2188V21.0312L82.3281 14.625Z" fill="#B3B700"/>
</svg>
