<svg width="143" height="28" viewBox="0 0 143 28" fill="none" xmlns="http://www.w3.org/2000/svg">
<path d="M14.256 26.712C13.248 27.048 12.336 27.216 11.52 27.216C10.296 27.216 9.336 26.772 8.64 25.884C7.968 24.972 7.416 23.688 6.984 22.032C6.888 21.672 6.552 20.352 5.976 18.072C4.848 13.608 3.936 10.38 3.24 8.388C2.544 6.372 1.524 4.848 0.18 3.816C0.468 3.096 0.936 2.52 1.584 2.088C2.256 1.656 3.036 1.44 3.924 1.44C4.812 1.44 5.544 1.788 6.12 2.484C6.696 3.156 7.152 3.984 7.488 4.968C7.848 5.952 8.16 6.9 8.424 7.812C8.688 8.724 8.964 9.852 9.252 11.196C9.564 12.54 9.804 13.632 9.972 14.472C10.164 15.288 10.452 16.704 10.836 18.72C11.244 20.712 11.544 22.164 11.736 23.076C15.768 12.564 17.784 5.544 17.784 2.016C17.784 1.704 17.772 1.476 17.748 1.332C18.108 1.26 18.48 1.224 18.864 1.224C19.824 1.224 20.604 1.464 21.204 1.944C21.828 2.4 22.14 3.06 22.14 3.924C22.14 5.124 20.952 8.676 18.576 14.58C16.224 20.46 14.784 24.504 14.256 26.712ZM24.3402 9.108C25.1082 8.892 25.8762 8.784 26.6442 8.784C27.4362 8.784 28.1082 9.024 28.6602 9.504C29.2122 9.984 29.4882 10.608 29.4882 11.376C29.4882 12.12 29.3562 13.428 29.0922 15.3C28.8522 17.148 28.7322 18.588 28.7322 19.62C28.7322 22.308 28.9842 24.624 29.4882 26.568C28.7442 26.856 27.9402 27 27.0762 27C26.2122 27 25.5282 26.808 25.0242 26.424C24.5202 26.016 24.2682 25.44 24.2682 24.696C24.2682 23.928 24.4122 22.68 24.7002 20.952C24.9882 19.224 25.1322 17.796 25.1322 16.668C25.1322 13.668 24.8682 11.148 24.3402 9.108ZM24.8082 0.971998C25.6482 0.587999 26.4762 0.395999 27.2922 0.395999C28.1082 0.395999 28.7082 0.611999 29.0922 1.044C29.5002 1.452 29.7042 2.064 29.7042 2.88C29.7042 3.696 29.4282 4.416 28.8762 5.04C28.3482 5.664 27.6522 5.976 26.7882 5.976C25.0122 5.976 24.1242 5.052 24.1242 3.204C24.1242 2.388 24.3522 1.644 24.8082 0.971998ZM36.612 18.828C36.612 20.556 36.888 21.924 37.44 22.932C37.992 23.916 38.916 24.408 40.212 24.408C41.508 24.408 42.516 23.976 43.236 23.112C43.98 22.224 44.352 21.156 44.352 19.908C45.168 19.908 45.876 20.112 46.476 20.52C47.076 20.928 47.376 21.492 47.376 22.212C47.376 23.7 46.584 24.948 45 25.956C43.416 26.94 41.748 27.432 39.996 27.432C37.26 27.432 35.28 26.7 34.056 25.236C32.832 23.748 32.22 21.552 32.22 18.648C32.22 15.744 33.036 13.308 34.668 11.34C36.324 9.348 38.52 8.352 41.256 8.352C43.128 8.352 44.628 8.784 45.756 9.648C46.908 10.488 47.484 11.808 47.484 13.608C47.484 15.384 46.668 16.728 45.036 17.64C43.428 18.528 41.46 18.972 39.132 18.972C38.316 18.972 37.476 18.924 36.612 18.828ZM36.648 15.984C37.368 16.128 38.124 16.2 38.916 16.2C40.644 16.2 42.096 15.876 43.272 15.228C43.416 14.652 43.488 14.196 43.488 13.86C43.488 13.02 43.188 12.384 42.588 11.952C41.988 11.52 41.16 11.304 40.104 11.304C39.072 11.304 38.136 11.64 37.296 12.312C36.864 13.56 36.648 14.784 36.648 15.984ZM62.5438 9.216C62.6398 8.736 62.6878 8.244 62.6878 7.74C62.6878 5.412 61.5478 4.248 59.2678 4.248C58.2358 4.248 57.3598 4.464 56.6398 4.896C55.9678 5.688 55.6318 6.636 55.6318 7.74C55.6318 8.46 55.9438 9.084 56.5678 9.612C57.1918 10.116 57.9598 10.512 58.8718 10.8C59.8078 11.088 60.8158 11.448 61.8958 11.88C62.9758 12.312 63.9718 12.78 64.8838 13.284C65.8198 13.764 66.5998 14.496 67.2238 15.48C67.8478 16.44 68.1598 17.58 68.1598 18.9C68.1598 21.42 67.1878 23.472 65.2438 25.056C63.3238 26.64 61.0078 27.432 58.2958 27.432C56.1118 27.432 54.2518 26.892 52.7158 25.812C51.2038 24.708 50.4478 23.172 50.4478 21.204C50.4478 20.196 50.7478 19.356 51.3478 18.684C51.9718 17.988 52.7038 17.64 53.5438 17.64C54.4078 17.64 55.0438 17.748 55.4518 17.964C55.2598 18.684 55.1638 19.332 55.1638 19.908C55.1638 21.204 55.5238 22.236 56.2438 23.004C56.9878 23.748 58.0078 24.12 59.3038 24.12C60.5998 24.12 61.6438 23.784 62.4358 23.112C63.2278 22.44 63.6238 21.552 63.6238 20.448C63.6238 19.32 63.1798 18.396 62.2918 17.676C61.4278 16.956 60.3718 16.38 59.1238 15.948C57.8758 15.516 56.6278 15.06 55.3798 14.58C54.1318 14.1 53.0638 13.392 52.1758 12.456C51.3118 11.496 50.8798 10.296 50.8798 8.856C50.8798 6.6 51.8518 4.728 53.7958 3.24C55.7638 1.752 57.9838 1.008 60.4558 1.008C62.2798 1.008 63.8518 1.38 65.1718 2.124C66.5158 2.844 67.1878 3.948 67.1878 5.436C67.1878 6.516 66.8398 7.44 66.1438 8.208C65.4478 8.952 64.5718 9.324 63.5158 9.324C63.2278 9.324 62.9038 9.288 62.5438 9.216ZM87.7267 12.456L87.3667 20.376C87.3667 22.488 87.7147 24.624 88.4107 26.784C87.6667 27.072 86.9107 27.216 86.1427 27.216C84.0547 27.216 83.0107 26.112 83.0107 23.904C83.0107 22.272 83.1547 20.352 83.4427 18.144C83.7307 15.936 83.8747 14.58 83.8747 14.076C83.8747 12.828 83.3107 12.204 82.1827 12.204C80.9827 12.204 79.6507 13.332 78.1867 15.588C76.7227 17.82 75.8827 19.692 75.6667 21.204C75.7147 21.9 75.9547 23.688 76.3867 26.568C75.6427 26.856 74.8267 27 73.9387 27C72.0907 27 71.1667 26.1 71.1667 24.3C71.1667 23.436 71.2987 21.744 71.5627 19.224C71.8267 16.68 71.9587 14.64 71.9587 13.104C71.9587 7.992 71.6707 3.768 71.0947 0.431999C71.8627 0.143998 72.6547 -2.14577e-06 73.4707 -2.14577e-06C74.2867 -2.14577e-06 74.9587 0.275998 75.4867 0.827998C76.0387 1.356 76.3147 2.088 76.3147 3.024C76.3147 3.96 76.1827 5.892 75.9187 8.82C75.6787 11.748 75.5587 14.028 75.5587 15.66C76.3987 13.884 77.6227 12.264 79.2307 10.8C80.8627 9.312 82.4827 8.568 84.0907 8.568C86.5147 8.568 87.7267 9.864 87.7267 12.456ZM108.535 10.044C107.887 12.804 107.563 15.576 107.563 18.36C107.563 21.12 107.875 23.856 108.499 26.568C107.635 26.856 106.747 27 105.835 27C104.923 27 104.287 26.736 103.927 26.208C103.567 25.656 103.387 24.876 103.387 23.868C103.387 22.836 103.543 21.432 103.855 19.656C102.151 23.304 100.507 25.608 98.9229 26.568C98.2029 27 97.4589 27.216 96.6909 27.216C94.8669 27.216 93.4509 26.544 92.4429 25.2C91.4349 23.832 90.9309 22.14 90.9309 20.124C90.9309 17.052 91.7829 14.364 93.4869 12.06C95.1909 9.732 97.3989 8.568 100.111 8.568C102.847 8.568 105.655 9.06 108.535 10.044ZM103.819 12.204C102.547 11.82 101.467 11.628 100.579 11.628C98.7789 11.628 97.4349 12.024 96.5469 12.816C95.7309 14.832 95.3229 16.884 95.3229 18.972C95.3229 20.076 95.4909 21.192 95.8269 22.32C96.1869 23.448 96.7269 24.012 97.4469 24.012C98.2869 24.012 99.3669 22.776 100.687 20.304C102.007 17.832 103.051 15.132 103.819 12.204ZM116.992 26.568C116.248 26.856 115.456 27 114.616 27C113.776 27 113.092 26.808 112.564 26.424C112.06 26.016 111.808 25.464 111.808 24.768C111.808 24.048 111.916 22.752 112.132 20.88C112.348 19.008 112.456 17.196 112.456 15.444C112.456 13.668 112.18 11.592 111.628 9.216C112.396 8.928 113.152 8.784 113.896 8.784C114.64 8.784 115.276 9.036 115.804 9.54C116.356 10.044 116.632 10.716 116.632 11.556C116.632 11.988 116.56 12.636 116.416 13.5C116.272 14.34 116.188 14.976 116.164 15.408C117.1 13.272 118.204 11.604 119.476 10.404C120.772 9.18 122.056 8.568 123.328 8.568C124.216 8.568 124.924 8.88 125.452 9.504C125.98 10.128 126.244 10.92 126.244 11.88C126.244 12.816 126.004 13.584 125.524 14.184C125.044 14.76 124.444 15.048 123.724 15.048C123.028 15.048 122.464 14.976 122.032 14.832C122.104 14.544 122.14 14.28 122.14 14.04C122.14 13.056 121.792 12.564 121.096 12.564C120.04 12.564 119.044 13.632 118.108 15.768C117.196 17.88 116.584 19.86 116.272 21.708C116.392 23.508 116.632 25.128 116.992 26.568ZM131.393 18.828C131.393 20.556 131.669 21.924 132.221 22.932C132.773 23.916 133.697 24.408 134.993 24.408C136.289 24.408 137.297 23.976 138.017 23.112C138.761 22.224 139.133 21.156 139.133 19.908C139.949 19.908 140.657 20.112 141.257 20.52C141.857 20.928 142.157 21.492 142.157 22.212C142.157 23.7 141.365 24.948 139.781 25.956C138.197 26.94 136.529 27.432 134.777 27.432C132.041 27.432 130.061 26.7 128.837 25.236C127.613 23.748 127.001 21.552 127.001 18.648C127.001 15.744 127.817 13.308 129.449 11.34C131.105 9.348 133.301 8.352 136.037 8.352C137.909 8.352 139.409 8.784 140.537 9.648C141.689 10.488 142.265 11.808 142.265 13.608C142.265 15.384 141.449 16.728 139.817 17.64C138.209 18.528 136.241 18.972 133.913 18.972C133.097 18.972 132.257 18.924 131.393 18.828ZM131.429 15.984C132.149 16.128 132.905 16.2 133.697 16.2C135.425 16.2 136.877 15.876 138.053 15.228C138.197 14.652 138.269 14.196 138.269 13.86C138.269 13.02 137.969 12.384 137.369 11.952C136.769 11.52 135.941 11.304 134.885 11.304C133.853 11.304 132.917 11.64 132.077 12.312C131.645 13.56 131.429 14.784 131.429 15.984Z" fill="#2E7D32"/>
<path d="M14.256 26.712L16.1534 32.4041L19.3161 31.3498L20.0915 28.1074L14.256 26.712ZM8.64 25.884L3.80966 29.4432L3.86261 29.515L3.91767 29.5853L8.64 25.884ZM6.984 22.032L12.7897 20.5175L12.7856 20.5017L12.7814 20.486L6.984 22.032ZM5.976 18.072L11.7932 16.6024L11.7932 16.6021L5.976 18.072ZM3.24 8.388L-2.43152 10.346L-2.42789 10.3566L-2.42421 10.3671L3.24 8.388ZM0.18 3.816L-5.39086 1.58765L-7.07866 5.80715L-3.47416 8.5749L0.18 3.816ZM1.584 2.088L-1.66055 -2.95907L-1.7026 -2.93204L-1.7442 -2.9043L1.584 2.088ZM6.12 2.484L1.49763 6.3094L1.5307 6.34936L1.56446 6.38875L6.12 2.484ZM7.488 4.968L1.8099 6.90686L1.83092 6.96841L1.85326 7.02949L7.488 4.968ZM8.424 7.812L14.1874 6.14365L14.1874 6.14365L8.424 7.812ZM9.252 11.196L3.38519 12.4532L3.39588 12.5031L3.40742 12.5528L9.252 11.196ZM9.972 14.472L4.08852 15.6487L4.10834 15.7478L4.1315 15.8462L9.972 14.472ZM10.836 18.72L4.94197 19.8427L4.94972 19.8834L4.95803 19.9239L10.836 18.72ZM11.736 23.076L5.8647 24.3121L10.0545 44.2139L17.338 25.2247L11.736 23.076ZM17.748 1.332L16.5713 -4.55149L10.8746 -3.41215L11.8296 2.31837L17.748 1.332ZM21.204 1.944L17.4558 6.62922L17.5581 6.71105L17.6639 6.78834L21.204 1.944ZM18.576 14.58L13.0098 12.34L13.0051 12.3517L18.576 14.58ZM12.3586 21.0199C12.0822 21.112 11.8742 21.1625 11.729 21.1893C11.584 21.216 11.518 21.216 11.52 21.216V33.216C13.1421 33.216 14.708 32.8859 16.1534 32.4041L12.3586 21.0199ZM11.52 21.216C11.6417 21.216 11.9763 21.241 12.4007 21.4372C12.8401 21.6405 13.1644 21.9301 13.3623 22.1827L3.91767 29.5853C5.85751 32.0603 8.63216 33.216 11.52 33.216V21.216ZM13.4703 22.3248C13.42 22.2565 13.1179 21.7755 12.7897 20.5175L1.1783 23.5465C1.71412 25.6005 2.51603 27.6875 3.80966 29.4432L13.4703 22.3248ZM12.7814 20.486C12.6985 20.1749 12.3756 18.9074 11.7932 16.6024L0.158765 19.5416C0.728449 21.7966 1.07755 23.1691 1.18659 23.578L12.7814 20.486ZM11.7932 16.6021C10.66 12.1178 9.69412 8.66969 8.90421 6.40894L-2.42421 10.3671C-1.82212 12.0903 -0.964036 15.0982 0.158843 19.5419L11.7932 16.6021ZM8.91152 6.42997C7.93099 3.58982 6.32513 0.969809 3.83416 -0.942902L-3.47416 8.5749C-3.27713 8.72619 -2.84299 9.15418 -2.43152 10.346L8.91152 6.42997ZM5.75086 6.04434C5.68039 6.22051 5.56789 6.42546 5.40368 6.62756C5.23963 6.82947 5.06432 6.97889 4.9122 7.0803L-1.7442 -2.9043C-3.39746 -1.80213 -4.65001 -0.264475 -5.39086 1.58765L5.75086 6.04434ZM4.82855 7.13507C4.65018 7.24973 4.45816 7.33346 4.27428 7.38438C4.09491 7.43405 3.96911 7.44 3.924 7.44V-4.56C2.01827 -4.56 0.0851801 -4.08132 -1.66055 -2.95907L4.82855 7.13507ZM3.924 7.44C3.56311 7.44 3.07623 7.36387 2.56285 7.1198C2.05238 6.87712 1.703 6.55756 1.49763 6.3094L10.7424 -1.34141C9.04945 -3.38701 6.6355 -4.56 3.924 -4.56V7.44ZM1.56446 6.38875C1.56637 6.39097 1.67768 6.51965 1.8099 6.90686L13.1661 3.02914C12.6263 1.44834 11.8256 -0.0789733 10.6755 -1.42075L1.56446 6.38875ZM1.85326 7.02949C2.17066 7.89704 2.43865 8.71357 2.66062 9.48035L14.1874 6.14365C13.8813 5.08642 13.5253 4.00696 13.1227 2.90651L1.85326 7.02949ZM2.66061 9.48034C2.87223 10.2114 3.11497 11.1922 3.38519 12.4532L15.1188 9.93883C14.813 8.51184 14.5038 7.23662 14.1874 6.14365L2.66061 9.48034ZM3.40742 12.5528C3.71279 13.8682 3.93754 14.8938 4.08852 15.6487L15.8555 13.2953C15.6705 12.3702 15.4152 11.2118 15.0966 9.83922L3.40742 12.5528ZM4.1315 15.8462C4.29082 16.5234 4.5577 17.8253 4.94197 19.8427L16.73 17.5973C16.3463 15.5827 16.0372 14.0526 15.8125 13.0978L4.1315 15.8462ZM4.95803 19.9239C5.36629 21.9172 5.66908 23.3829 5.8647 24.3121L17.6073 21.8399C17.4189 20.9451 17.1217 19.5068 16.714 17.5161L4.95803 19.9239ZM17.338 25.2247C19.3868 19.8834 20.9649 15.3231 22.0389 11.5831C23.0732 7.98146 23.784 4.66714 23.784 2.016H11.784C11.784 2.89285 11.4868 4.85254 10.5051 8.27086C9.56314 11.5509 8.11721 15.7566 6.13395 20.9273L17.338 25.2247ZM23.784 2.016C23.784 1.65785 23.7771 1.01002 23.6664 0.345623L11.8296 2.31837C11.8078 2.18762 11.7969 2.08823 11.7916 2.03368C11.7861 1.97623 11.7839 1.93863 11.7833 1.92635C11.7822 1.90529 11.784 1.93005 11.784 2.016H23.784ZM18.9247 7.21548C18.8799 7.22444 18.857 7.224 18.864 7.224V-4.776C18.103 -4.776 17.3361 -4.70444 16.5713 -4.55149L18.9247 7.21548ZM18.864 7.224C18.8484 7.224 18.6765 7.22238 18.4045 7.13867C18.1184 7.05066 17.7811 6.8894 17.4558 6.62922L24.9522 -2.74122C23.0453 -4.26673 20.8387 -4.776 18.864 -4.776V7.224ZM17.6639 6.78834C17.2163 6.46129 16.7788 5.97396 16.4816 5.34527C16.1953 4.73962 16.14 4.21765 16.14 3.924H28.14C28.14 1.40585 27.1131 -1.16914 24.7441 -2.90035L17.6639 6.78834ZM16.14 3.924C16.14 3.45212 16.2223 3.30615 16.0964 3.80979C15.9998 4.19622 15.8293 4.77613 15.5588 5.58487C15.0199 7.19613 14.1793 9.43398 13.0098 12.34L24.1422 16.82C25.3487 13.822 26.2901 11.3319 26.9392 9.39113C27.2627 8.42387 27.5377 7.52178 27.7381 6.72021C27.9092 6.03584 28.14 4.99588 28.14 3.924H16.14ZM13.0051 12.3517C10.6717 18.1852 9.06548 22.6195 8.42053 25.3166L20.0915 28.1074C20.5025 26.3885 21.7763 22.7348 24.1469 16.8083L13.0051 12.3517ZM24.3402 9.108L22.7157 3.3321L17.0593 4.92297L18.5316 10.6114L24.3402 9.108ZM29.0922 15.3L23.151 14.4621L23.1464 14.4947L23.1422 14.5273L29.0922 15.3ZM29.4882 26.568L31.6542 32.1634L36.6372 30.2345L35.2962 25.0622L29.4882 26.568ZM25.0242 26.424L21.249 31.0875L21.3177 31.1431L21.388 31.1966L25.0242 26.424ZM24.7002 20.952L18.7819 19.9656V19.9656L24.7002 20.952ZM24.8082 0.971998L22.3137 -4.48485L20.7863 -3.78664L19.8434 -2.39701L24.8082 0.971998ZM29.0922 1.044L24.6078 5.03018L24.7249 5.16197L24.8496 5.28665L29.0922 1.044ZM28.8762 5.04L24.3822 1.06456L24.3385 1.11398L24.2959 1.16434L28.8762 5.04ZM25.9647 14.8839C26.2246 14.8108 26.4464 14.784 26.6442 14.784V2.784C25.306 2.784 23.9918 2.9732 22.7157 3.3321L25.9647 14.8839ZM26.6442 14.784C26.4276 14.784 26.1031 14.7498 25.7242 14.6145C25.3383 14.4766 24.9968 14.2696 24.7231 14.0316L32.5973 4.97637C30.8596 3.46534 28.7539 2.784 26.6442 2.784V14.784ZM24.7231 14.0316C24.3833 13.7361 24.0375 13.3096 23.794 12.759C23.5538 12.216 23.4882 11.7228 23.4882 11.376H35.4882C35.4882 8.97002 34.5324 6.65909 32.5973 4.97637L24.7231 14.0316ZM23.4882 11.376C23.4882 11.6482 23.4175 12.5726 23.151 14.4621L35.0334 16.1379C35.295 14.2834 35.4882 12.5918 35.4882 11.376H23.4882ZM23.1422 14.5273C22.8908 16.4627 22.7322 18.2021 22.7322 19.62H34.7322C34.7322 18.9739 34.8136 17.8333 35.0423 16.0727L23.1422 14.5273ZM22.7322 19.62C22.7322 22.6564 23.0141 25.5044 23.6802 28.0738L35.2962 25.0622C34.9543 23.7436 34.7322 21.9596 34.7322 19.62H22.7322ZM27.3223 20.9726C27.3173 20.9745 27.302 20.9802 27.2694 20.986C27.236 20.992 27.1739 21 27.0762 21V33C28.6192 33 30.164 32.7402 31.6542 32.1634L27.3223 20.9726ZM27.0762 21C27.0787 21 27.2517 20.9992 27.5368 21.0793C27.8356 21.1632 28.2416 21.3323 28.6605 21.6514L21.388 31.1966C23.2585 32.6217 25.3699 33 27.0762 33V21ZM28.7994 21.7605C29.2695 22.1411 29.6829 22.6611 29.9542 23.2811C30.2151 23.8774 30.2682 24.3898 30.2682 24.696H18.2682C18.2682 26.9506 19.1201 29.364 21.249 31.0875L28.7994 21.7605ZM30.2682 24.696C30.2682 24.4671 30.334 23.646 30.6186 21.9384L18.7819 19.9656C18.4905 21.714 18.2682 23.3889 18.2682 24.696H30.2682ZM30.6186 21.9384C30.9347 20.0417 31.1322 18.2548 31.1322 16.668H19.1322C19.1322 17.3372 19.0417 18.4063 18.7819 19.9656L30.6186 21.9384ZM31.1322 16.668C31.1322 13.3559 30.8449 10.2942 30.1488 7.6046L18.5316 10.6114C18.8915 12.0018 19.1322 13.9801 19.1322 16.668H31.1322ZM27.3028 6.42885C27.3882 6.38978 27.4244 6.38262 27.4146 6.38492C27.4099 6.38599 27.3961 6.38891 27.374 6.39149C27.3517 6.39409 27.3241 6.396 27.2922 6.396V-5.604C25.5085 -5.604 23.8332 -5.1795 22.3137 -4.48485L27.3028 6.42885ZM27.2922 6.396C27.1219 6.396 25.7698 6.33747 24.6078 5.03018L33.5767 -2.94218C31.6466 -5.11347 29.0945 -5.604 27.2922 -5.604V6.396ZM24.8496 5.28665C23.7355 4.17256 23.7042 2.98886 23.7042 2.88H35.7042C35.7042 1.13913 35.2649 -1.26857 33.3349 -3.19865L24.8496 5.28665ZM23.7042 2.88C23.7042 2.59705 23.7549 2.24913 23.8947 1.88438C24.0338 1.52156 24.2207 1.24712 24.3822 1.06456L33.3702 9.01544C34.8702 7.31983 35.7042 5.194 35.7042 2.88H23.7042ZM24.2959 1.16434C24.5695 0.840959 24.9746 0.504211 25.5039 0.266941C26.0241 0.0337257 26.4866 -0.0240021 26.7882 -0.0240021V11.976C29.3022 11.976 31.7163 10.9723 33.4565 8.91566L24.2959 1.16434ZM26.7882 -0.0240021C26.8871 -0.0240021 28.0484 0.0143051 29.1163 1.12547C29.6094 1.63858 29.8746 2.18021 30.0047 2.5863C30.067 2.78087 30.0962 2.93634 30.1101 3.03759C30.1239 3.13853 30.1242 3.19705 30.1242 3.204H18.1242C18.1242 4.99454 18.551 7.44982 20.4641 9.44053C22.42 11.4757 24.9133 11.976 26.7882 11.976V-0.0240021ZM30.1242 3.204C30.1242 3.36272 30.1008 3.56715 30.0319 3.79201C29.9629 4.01711 29.8665 4.20328 29.7731 4.34101L19.8434 -2.39701C18.7094 -0.725877 18.1242 1.19285 18.1242 3.204H30.1242ZM36.612 18.828L37.2746 12.8647L30.612 12.1244V18.828H36.612ZM37.44 22.932L32.1774 25.8139L32.1921 25.8408L32.2071 25.8675L37.44 22.932ZM43.236 23.112L38.6369 19.2587L38.6318 19.2648L38.6267 19.2709L43.236 23.112ZM44.352 19.908V13.908H38.352V19.908H44.352ZM46.476 20.52L43.1021 25.4816V25.4816L46.476 20.52ZM45 25.956L48.1661 31.0526L48.1938 31.0355L48.2213 31.018L45 25.956ZM34.056 25.236L29.4223 29.0476L29.4375 29.0661L29.4529 29.0845L34.056 25.236ZM34.668 11.34L30.0541 7.50436L30.0495 7.50998L34.668 11.34ZM45.756 9.648L42.1075 14.4113L42.1638 14.4543L42.221 14.496L45.756 9.648ZM45.036 17.64L47.9365 22.8923L47.9498 22.885L47.9629 22.8777L45.036 17.64ZM36.648 15.984H30.648V20.9028L35.4713 21.8675L36.648 15.984ZM43.272 15.228L46.1676 20.483L48.4585 19.2207L49.0929 16.6832L43.272 15.228ZM42.588 11.952L46.0938 7.0828L46.0938 7.08279L42.588 11.952ZM37.296 12.312L33.5478 7.62679L32.1934 8.71029L31.6261 10.3493L37.296 12.312ZM30.612 18.828C30.612 21.0962 30.9582 23.5875 32.1774 25.8139L42.7026 20.0501C42.7716 20.1762 42.7435 20.1768 42.7005 19.9634C42.6573 19.7493 42.612 19.3835 42.612 18.828H30.612ZM32.2071 25.8675C33.9982 29.0602 37.1342 30.408 40.212 30.408V18.408C40.317 18.408 40.778 18.4294 41.367 18.743C41.9978 19.0789 42.4326 19.5682 42.6729 19.9965L32.2071 25.8675ZM40.212 30.408C42.9856 30.408 45.8046 29.402 47.8453 26.9531L38.6267 19.2709C38.8567 18.9949 39.1876 18.7358 39.5765 18.5691C39.9423 18.4123 40.1929 18.408 40.212 18.408V30.408ZM47.8351 26.9653C49.5566 24.9106 50.352 22.4478 50.352 19.908H38.352C38.352 19.9293 38.3502 19.8342 38.4069 19.6714C38.4657 19.5026 38.5539 19.3577 38.6369 19.2587L47.8351 26.9653ZM44.352 25.908C44.2577 25.908 44.0743 25.8957 43.8338 25.8264C43.5876 25.7555 43.3351 25.64 43.1021 25.4816L49.8499 15.5584C48.1335 14.3913 46.2158 13.908 44.352 13.908V25.908ZM43.1021 25.4816C42.707 25.2129 42.2202 24.7556 41.8538 24.0667C41.4864 23.376 41.376 22.7081 41.376 22.212H53.376C53.376 19.4869 52.0773 17.0731 49.8499 15.5584L43.1021 25.4816ZM41.376 22.212C41.376 22.0449 41.3993 21.8387 41.4641 21.6147C41.5291 21.3903 41.6211 21.1987 41.716 21.0491C41.9015 20.7568 42.022 20.7392 41.7787 20.894L48.2213 31.018C51.0195 29.2373 53.376 26.2966 53.376 22.212H41.376ZM41.8339 20.8594C41.1366 21.2926 40.5562 21.432 39.996 21.432V33.432C42.9398 33.432 45.6954 32.5874 48.1661 31.0526L41.8339 20.8594ZM39.996 21.432C39.1385 21.432 38.699 21.3142 38.5396 21.2553C38.4243 21.2127 38.5303 21.2334 38.6591 21.3875L29.4529 29.0845C32.2452 32.4244 36.281 33.432 39.996 33.432V21.432ZM38.6897 21.4244C38.6891 21.4236 38.6828 21.416 38.6719 21.3989C38.6608 21.3817 38.6439 21.3533 38.6228 21.311C38.5805 21.226 38.5202 21.0826 38.4587 20.8623C38.3324 20.4091 38.22 19.6965 38.22 18.648H26.22C26.22 22.2657 26.9639 26.059 29.4223 29.0476L38.6897 21.4244ZM38.22 18.648C38.22 16.9414 38.6679 15.916 39.2865 15.17L30.0495 7.50998C27.4041 10.7 26.22 14.5466 26.22 18.648H38.22ZM39.2819 15.1756C39.7265 14.6408 40.1884 14.352 41.256 14.352V2.352C36.8516 2.352 32.9215 4.05523 30.0541 7.50436L39.2819 15.1756ZM41.256 14.352C41.7382 14.352 42.0091 14.4084 42.1245 14.4417C42.2261 14.4709 42.1938 14.4774 42.1075 14.4113L49.4045 4.88473C46.9395 2.99669 44.0283 2.352 41.256 2.352V14.352ZM42.221 14.496C42.0918 14.4019 41.9538 14.2749 41.8268 14.1162C41.7 13.9577 41.6109 13.801 41.5528 13.6677C41.439 13.4069 41.484 13.334 41.484 13.608H53.484C53.484 10.4502 52.3943 7.06274 49.291 4.79995L42.221 14.496ZM41.484 13.608C41.484 13.5435 41.5102 13.218 41.7433 12.8341C41.9669 12.4658 42.1914 12.3563 42.1091 12.4023L47.9629 22.8777C51.369 20.9743 53.484 17.6955 53.484 13.608H41.484ZM42.1355 12.3877C41.6223 12.6711 40.7113 12.972 39.132 12.972V24.972C42.2087 24.972 45.2337 24.3849 47.9365 22.8923L42.1355 12.3877ZM39.132 12.972C38.5512 12.972 37.9327 12.9378 37.2746 12.8647L35.9494 24.7913C37.0193 24.9102 38.0808 24.972 39.132 24.972V12.972ZM35.4713 21.8675C36.6077 22.0948 37.7596 22.2 38.916 22.2V10.2C38.4884 10.2 38.1283 10.1612 37.8247 10.1005L35.4713 21.8675ZM38.916 22.2C41.3734 22.2 43.886 21.7403 46.1676 20.483L40.3764 9.97297C40.306 10.0117 39.9146 10.2 38.916 10.2V22.2ZM49.0929 16.6832C49.2799 15.9349 49.488 14.9234 49.488 13.86H37.488C37.488 13.7334 37.4946 13.6412 37.4991 13.5913C37.5038 13.5401 37.508 13.5144 37.5074 13.5182C37.5069 13.5214 37.5032 13.5443 37.4938 13.5893C37.4844 13.6339 37.4707 13.6946 37.4511 13.7728L49.0929 16.6832ZM49.488 13.86C49.488 11.3929 48.4903 8.80825 46.0938 7.0828L39.0822 16.8212C38.6004 16.4743 38.143 15.9627 37.8364 15.3127C37.5425 14.6895 37.488 14.1551 37.488 13.86H49.488ZM46.0938 7.08279C44.1194 5.66119 41.8988 5.304 40.104 5.304V17.304C40.4212 17.304 39.8566 17.3788 39.0822 16.8212L46.0938 7.08279ZM40.104 5.304C37.6485 5.304 35.403 6.14262 33.5478 7.62679L41.0442 16.9972C40.9897 17.0408 40.8589 17.13 40.6552 17.2032C40.4484 17.2774 40.2526 17.304 40.104 17.304V5.304ZM31.6261 10.3493C30.9974 12.1654 30.648 14.0522 30.648 15.984H42.648C42.648 15.5158 42.7306 14.9546 42.9659 14.2747L31.6261 10.3493ZM62.5438 9.216L56.6603 8.0393L55.4836 13.9228L61.3671 15.0995L62.5438 9.216ZM56.6398 4.896L53.5528 -0.248958L52.7047 0.259933L52.0648 1.01413L56.6398 4.896ZM56.5678 9.612L52.6922 14.1923L52.7445 14.2366L52.7978 14.2796L56.5678 9.612ZM58.8718 10.8L57.065 16.5215L57.0861 16.5282L57.1073 16.5347L58.8718 10.8ZM61.8958 11.88L59.6675 17.4509L61.8958 11.88ZM64.8838 13.284L61.9817 18.5354L62.0631 18.5805L62.1459 18.6229L64.8838 13.284ZM67.2238 15.48L62.1568 18.6933L62.1748 18.7217L62.1931 18.7499L67.2238 15.48ZM65.2438 25.056L61.4538 20.4046L61.4396 20.4161L61.4255 20.4278L65.2438 25.056ZM52.7158 25.812L49.1776 30.6578L49.2209 30.6894L49.2648 30.7202L52.7158 25.812ZM51.3478 18.684L46.8804 14.6787L46.8722 14.6879L51.3478 18.684ZM55.4518 17.964L61.2492 19.51L62.4797 14.8957L58.2591 12.6613L55.4518 17.964ZM56.2438 23.004L51.8666 27.1076L51.9328 27.1782L52.0012 27.2466L56.2438 23.004ZM62.4358 23.112L66.3177 27.6871L66.3177 27.6871L62.4358 23.112ZM62.2918 17.676L58.4507 22.2853L58.4817 22.3111L58.513 22.3365L62.2918 17.676ZM59.1238 15.948L61.0865 10.2781H61.0865L59.1238 15.948ZM55.3798 14.58L57.5337 8.97993H57.5337L55.3798 14.58ZM52.1758 12.456L47.716 16.4698L47.7688 16.5284L47.823 16.5856L52.1758 12.456ZM53.7958 3.24L50.1772 -1.54596L50.163 -1.53526L50.1489 -1.52448L53.7958 3.24ZM65.1718 2.124L62.2257 7.35091L62.2818 7.3825L62.3385 7.41288L65.1718 2.124ZM66.1438 8.208L70.5254 12.3069L70.5579 12.2723L70.5897 12.2371L66.1438 8.208ZM68.4273 10.3927C68.603 9.51395 68.6878 8.62741 68.6878 7.74H56.6878C56.6878 7.86059 56.6766 7.95805 56.6603 8.0393L68.4273 10.3927ZM68.6878 7.74C68.6878 5.68216 68.1839 3.03078 66.1194 0.92278C64.0322 -1.20834 61.3647 -1.752 59.2678 -1.752V10.248C59.4509 10.248 58.4934 10.2863 57.5462 9.31922C56.6217 8.37522 56.6878 7.46983 56.6878 7.74H68.6878ZM59.2678 -1.752C57.3967 -1.752 55.3975 -1.35573 53.5528 -0.248958L59.7268 10.041C59.5368 10.1549 59.3731 10.2109 59.2732 10.2355C59.1796 10.2586 59.168 10.248 59.2678 10.248V-1.752ZM52.0648 1.01413C50.412 2.96197 49.6318 5.31089 49.6318 7.74H61.6318C61.6318 7.80439 61.6204 7.97593 61.5391 8.20541C61.4559 8.44003 61.3342 8.63722 61.2149 8.77786L52.0648 1.01413ZM49.6318 7.74C49.6318 10.4757 50.9249 12.6969 52.6922 14.1923L60.4435 5.03168C60.6466 5.20359 60.9681 5.53613 61.2324 6.06472C61.5065 6.613 61.6318 7.19936 61.6318 7.74H49.6318ZM52.7978 14.2796C54.105 15.3355 55.5729 16.0503 57.065 16.5215L60.6786 5.0785C60.3467 4.9737 60.2786 4.89649 60.3378 4.94435L52.7978 14.2796ZM57.1073 16.5347C57.8607 16.7665 58.7125 17.0689 59.6675 17.4509L64.1242 6.30914C62.9192 5.82714 61.7549 5.4095 60.6363 5.06532L57.1073 16.5347ZM59.6675 17.4509C60.5426 17.8009 61.3108 18.1647 61.9817 18.5354L67.7859 8.03255C66.6328 7.39531 65.409 6.82307 64.1242 6.30914L59.6675 17.4509ZM62.1459 18.6229C62.1291 18.6143 62.1115 18.6037 62.0951 18.5921C62.0788 18.5806 62.0686 18.5716 62.0649 18.5681C62.0614 18.5648 62.0678 18.5703 62.0828 18.5887C62.098 18.6073 62.1234 18.6407 62.1568 18.6933L72.2909 12.2667C71.1572 10.4791 69.6098 8.9646 67.6217 7.94509L62.1459 18.6229ZM62.1931 18.7499C62.1771 18.7253 62.1635 18.6998 62.153 18.6764C62.148 18.6652 62.1444 18.6559 62.142 18.649C62.1396 18.6422 62.1386 18.6387 62.1386 18.6389C62.1386 18.6389 62.1438 18.6574 62.149 18.6987C62.1543 18.7403 62.1598 18.8063 62.1598 18.9H74.1598C74.1598 16.601 73.6034 14.2853 72.2545 12.2101L62.1931 18.7499ZM62.1598 18.9C62.1598 19.6265 61.9914 19.9666 61.4538 20.4046L69.0339 29.7074C72.3843 26.9774 74.1598 23.2135 74.1598 18.9H62.1598ZM61.4255 20.4278C60.6792 21.0435 59.7481 21.432 58.2958 21.432V33.432C62.2676 33.432 65.9685 32.2365 69.0621 29.6842L61.4255 20.4278ZM58.2958 21.432C57.1394 21.432 56.5348 21.1625 56.1669 20.9038L49.2648 30.7202C51.9688 32.6215 55.0842 33.432 58.2958 33.432V21.432ZM56.254 20.9662C56.2205 20.9418 56.2359 20.9479 56.2747 20.9931C56.3151 21.0401 56.3602 21.1055 56.3981 21.1824C56.4356 21.2586 56.4505 21.3147 56.4546 21.3336C56.4581 21.3497 56.4478 21.3116 56.4478 21.204H44.4478C44.4478 24.9724 46.0278 28.3579 49.1776 30.6578L56.254 20.9662ZM56.4478 21.204C56.4478 21.2992 56.4326 21.5299 56.3233 21.836C56.2103 22.1524 56.0337 22.4446 55.8234 22.6801L46.8722 14.6879C45.1718 16.5923 44.4478 18.9103 44.4478 21.204H56.4478ZM55.8152 22.6893C55.6772 22.8432 55.3943 23.1043 54.941 23.3198C54.4725 23.5425 53.9817 23.64 53.5438 23.64V11.64C50.7956 11.64 48.4994 12.8729 46.8804 14.6787L55.8152 22.6893ZM53.5438 23.64C53.7445 23.64 53.7679 23.6539 53.6643 23.6363C53.6068 23.6265 53.4881 23.6034 53.3247 23.5526C53.1625 23.5023 52.9249 23.4152 52.6445 23.2667L58.2591 12.6613C56.5216 11.7414 54.6729 11.64 53.5438 11.64V23.64ZM49.6544 16.418C49.365 17.5032 49.1638 18.6834 49.1638 19.908H61.1638C61.1638 19.951 61.1604 19.9409 61.171 19.8693C61.1816 19.798 61.2039 19.6798 61.2492 19.51L49.6544 16.418ZM49.1638 19.908C49.1638 22.3581 49.8757 24.984 51.8666 27.1076L60.621 18.9004C60.8563 19.1513 61.0138 19.4334 61.099 19.6778C61.1775 19.9027 61.1638 20.0049 61.1638 19.908H49.1638ZM52.0012 27.2466C54.1198 29.3653 56.8079 30.12 59.3038 30.12V18.12C59.2247 18.12 59.36 18.1084 59.6226 18.2042C59.9075 18.3081 60.2199 18.4948 60.4865 18.7614L52.0012 27.2466ZM59.3038 30.12C61.6583 30.12 64.1932 29.4896 66.3177 27.6871L58.554 18.5369C58.7912 18.3356 59.036 18.2159 59.2206 18.1565C59.3892 18.1023 59.4381 18.12 59.3038 18.12V30.12ZM66.3177 27.6871C68.5467 25.7958 69.6238 23.1877 69.6238 20.448H57.6238C57.6238 20.2719 57.6585 19.921 57.847 19.4983C58.0399 19.0657 58.3121 18.7421 58.5539 18.5369L66.3177 27.6871ZM69.6238 20.448C69.6238 17.4829 68.3417 14.8568 66.0706 13.0155L58.513 22.3365C58.3482 22.2029 58.087 21.9328 57.8828 21.5077C57.6774 21.0802 57.6238 20.6922 57.6238 20.448H69.6238ZM66.1329 13.0667C64.6242 11.8094 62.9025 10.9067 61.0865 10.2781L57.1611 21.6179C57.8411 21.8533 58.2315 22.1026 58.4507 22.2853L66.1329 13.0667ZM61.0865 10.2781C59.9034 9.86856 58.7191 9.43587 57.5337 8.97993L53.2259 20.1801C54.5365 20.6841 55.8482 21.1634 57.1611 21.6179L61.0865 10.2781ZM57.5337 8.97993C57.0878 8.80841 56.7796 8.59098 56.5286 8.32644L47.823 16.5856C49.348 18.193 51.1759 19.3916 53.2259 20.1801L57.5337 8.97993ZM56.6356 8.44221C56.6706 8.48116 56.7127 8.53551 56.7538 8.60402C56.795 8.67269 56.8267 8.74135 56.8491 8.80368C56.896 8.93394 56.8798 8.97168 56.8798 8.856H44.8798C44.8798 11.5947 45.7442 14.2788 47.716 16.4698L56.6356 8.44221ZM56.8798 8.856C56.8798 8.62173 56.9219 8.54778 56.9338 8.52489C56.9537 8.48653 57.0582 8.29878 57.4427 8.00448L50.1489 -1.52448C46.8675 0.98723 44.8798 4.55588 44.8798 8.856H56.8798ZM57.4145 8.02595C58.3384 7.32739 59.2873 7.008 60.4558 7.008V-4.992C56.6803 -4.992 53.1893 -3.8234 50.1772 -1.54596L57.4145 8.02595ZM60.4558 7.008C61.4575 7.008 61.9716 7.20768 62.2257 7.35091L68.1179 -3.10291C65.732 -4.44768 63.1021 -4.992 60.4558 -4.992V7.008ZM62.3385 7.41288C62.2376 7.35885 61.8722 7.12686 61.5586 6.61168C61.2403 6.08866 61.1878 5.62284 61.1878 5.436H73.1878C73.1878 3.76116 72.7994 1.99934 71.809 0.372319C70.8234 -1.24686 69.45 -2.39086 68.0051 -3.16488L62.3385 7.41288ZM61.1878 5.436C61.1878 5.32149 61.2084 5.09895 61.3118 4.82427C61.4168 4.54558 61.5649 4.32566 61.6979 4.17888L70.5897 12.2371C72.3311 10.3156 73.1878 7.93663 73.1878 5.436H61.1878ZM61.7622 4.10906C61.9453 3.91335 62.2336 3.68626 62.6196 3.52233C63.0007 3.36048 63.3265 3.324 63.5158 3.324V15.324C66.1641 15.324 68.649 14.3128 70.5254 12.3069L61.7622 4.10906ZM63.5158 3.324C63.6198 3.324 63.6895 3.33038 63.7194 3.3337C63.7497 3.33707 63.7512 3.33865 63.7205 3.33251L61.3671 15.0995C62.0146 15.229 62.7424 15.324 63.5158 15.324V3.324ZM87.7267 12.456L93.7205 12.7284L93.7267 12.5923V12.456H87.7267ZM87.3667 20.376L81.3728 20.1036L81.3667 20.2397V20.376H87.3667ZM88.4107 26.784L90.5766 32.3794L95.8586 30.3348L94.1215 24.9438L88.4107 26.784ZM83.4427 18.144L89.3923 18.92L83.4427 18.144ZM78.1867 15.588L83.2037 18.8788L83.2118 18.8665L83.2198 18.8542L78.1867 15.588ZM75.6667 21.204L69.727 20.3555L69.6372 20.9837L69.6809 21.6168L75.6667 21.204ZM76.3867 26.568L78.5526 32.1634L83.0329 30.4291L82.3203 25.678L76.3867 26.568ZM71.5627 19.224L77.53 19.8491L77.5306 19.8433L71.5627 19.224ZM71.0947 0.431999L68.9879 -5.18598L64.337 -3.44188L65.1821 1.45286L71.0947 0.431999ZM75.4867 0.827998L71.1508 4.97533L71.243 5.07169L71.3393 5.16385L75.4867 0.827998ZM75.9187 8.82L69.9429 8.2812L69.9407 8.30551L69.9387 8.32984L75.9187 8.82ZM75.5587 15.66H69.5587L80.9826 18.2254L75.5587 15.66ZM79.2307 10.8L83.27 15.2366L83.2732 15.2337L79.2307 10.8ZM81.7328 12.1836L81.3728 20.1036L93.3605 20.6484L93.7205 12.7284L81.7328 12.1836ZM81.3667 20.376C81.3667 23.1576 81.8265 25.9139 82.6998 28.6242L94.1215 24.9438C93.6028 23.3341 93.3667 21.8184 93.3667 20.376H81.3667ZM86.2447 21.1886C86.1984 21.2065 86.1721 21.2122 86.163 21.214C86.1543 21.2156 86.1492 21.216 86.1427 21.216V33.216C87.6801 33.216 89.169 32.9243 90.5766 32.3794L86.2447 21.1886ZM86.1427 21.216C86.1438 21.216 86.2013 21.2159 86.3048 21.2316C86.4091 21.2473 86.5688 21.2804 86.7671 21.3503C87.1896 21.4992 87.6998 21.7861 88.1531 22.2655C89.0783 23.2439 89.0107 24.1641 89.0107 23.904H77.0107C77.0107 25.8519 77.465 28.4281 79.4342 30.5105C81.4629 32.6558 84.0855 33.216 86.1427 33.216V21.216ZM89.0107 23.904C89.0107 22.6055 89.1266 20.9564 89.3923 18.92L77.4931 17.368C77.1827 19.7476 77.0107 21.9384 77.0107 23.904H89.0107ZM89.3923 18.92C89.658 16.8827 89.8747 15.0642 89.8747 14.076H77.8747C77.8747 13.9689 77.8798 13.9664 77.8656 14.1506C77.8535 14.3069 77.8326 14.5318 77.8002 14.8374C77.7354 15.4477 77.6342 16.2858 77.4931 17.368L89.3923 18.92ZM89.8747 14.076C89.8747 12.6686 89.5697 10.4929 87.9029 8.64876C86.1319 6.68941 83.8368 6.204 82.1827 6.204V18.204C81.6565 18.204 80.2074 18.0306 79.0004 16.6952C77.8976 15.4751 77.8747 14.2354 77.8747 14.076H89.8747ZM82.1827 6.204C79.639 6.204 77.6747 7.39698 76.4062 8.47125C75.1201 9.56033 74.052 10.9374 73.1535 12.3218L83.2198 18.8542C83.4873 18.4419 83.7105 18.1408 83.8853 17.9292C83.9714 17.825 84.0395 17.7501 84.0888 17.6992C84.1384 17.648 84.1629 17.6273 84.1612 17.6288C84.1596 17.63 84.1235 17.6607 84.0514 17.7076C83.9792 17.7546 83.862 17.8239 83.6996 17.8962C83.3659 18.0449 82.8445 18.204 82.1827 18.204V6.204ZM73.1696 12.2972C71.5317 14.7944 70.1282 17.5471 69.727 20.3555L81.6064 22.0525C81.6372 21.8369 81.9136 20.8456 83.2037 18.8788L73.1696 12.2972ZM69.6809 21.6168C69.7493 22.6085 70.0354 24.6738 70.453 27.458L82.3203 25.678C81.8739 22.7022 81.68 21.1915 81.6524 20.7912L69.6809 21.6168ZM74.2207 20.9726C74.2258 20.9706 74.213 20.9764 74.1739 20.9833C74.1337 20.9904 74.0578 21 73.9387 21V33C75.4839 33 77.044 32.7474 78.5526 32.1634L74.2207 20.9726ZM73.9387 21C73.9453 21 74.1912 20.9987 74.5788 21.1245C74.9935 21.2592 75.5366 21.5306 76.0461 22.0269C77.1403 23.0926 77.1667 24.2345 77.1667 24.3H65.1667C65.1667 26.1655 65.6551 28.6574 67.6732 30.6231C69.6621 32.5603 72.1288 33 73.9387 33V21ZM77.1667 24.3C77.1667 23.7999 77.2611 22.4162 77.53 19.8491L65.5953 18.5989C65.3362 21.0718 65.1667 23.0721 65.1667 24.3H77.1667ZM77.5306 19.8433C77.8039 17.2093 77.9587 14.9374 77.9587 13.104H65.9587C65.9587 14.3426 65.8494 16.1507 65.5947 18.6047L77.5306 19.8433ZM77.9587 13.104C77.9587 7.80384 77.6628 3.20807 77.0072 -0.588867L65.1821 1.45286C65.6786 4.32793 65.9587 8.18016 65.9587 13.104H77.9587ZM73.2014 6.04997C73.2993 6.01326 73.3779 6 73.4707 6V-6C71.9314 -6 70.426 -5.72526 68.9879 -5.18598L73.2014 6.04997ZM73.4707 6C73.1929 6 72.7783 5.95063 72.3071 5.75712C71.8274 5.56009 71.4362 5.2737 71.1508 4.97533L79.8225 -3.31934C78.0792 -5.14187 75.7995 -6 73.4707 -6V6ZM71.3393 5.16385C70.9505 4.79195 70.6643 4.34299 70.4935 3.88982C70.3317 3.46074 70.3147 3.14061 70.3147 3.024H82.3147C82.3147 0.845566 81.6274 -1.60114 79.634 -3.50785L71.3393 5.16385ZM70.3147 3.024C70.3147 3.64204 70.2118 5.29893 69.9429 8.2812L81.8944 9.3588C82.1535 6.48506 82.3147 4.27796 82.3147 3.024H70.3147ZM69.9387 8.32984C69.6941 11.3143 69.5587 13.7842 69.5587 15.66H81.5587C81.5587 14.2718 81.6632 12.1817 81.8986 9.31016L69.9387 8.32984ZM80.9826 18.2254C81.4535 17.2296 82.1792 16.2297 83.27 15.2366L75.1913 6.36336C73.0661 8.29828 71.3438 10.5384 70.1347 13.0946L80.9826 18.2254ZM83.2732 15.2337C83.7366 14.8112 84.0416 14.6391 84.1738 14.5785C84.2842 14.5277 84.2409 14.568 84.0907 14.568V2.568C80.506 2.568 77.5092 4.24998 75.1881 6.36627L83.2732 15.2337ZM84.0907 14.568C84.271 14.568 83.3321 14.5972 82.4354 13.6382C81.6094 12.755 81.7267 11.9886 81.7267 12.456H93.7267C93.7267 10.3314 93.2379 7.62099 91.1999 5.44176C89.0912 3.18684 86.3343 2.568 84.0907 2.568V14.568ZM108.535 10.044L114.376 11.4154L115.619 6.12368L110.475 4.36625L108.535 10.044ZM108.499 26.568L110.396 32.2601L115.569 30.536L114.346 25.2226L108.499 26.568ZM103.927 26.208L98.9013 29.4856L98.9349 29.5372L98.9696 29.588L103.927 26.208ZM103.855 19.656L109.764 20.6942L98.4188 17.1167L103.855 19.656ZM98.9229 26.568L102.01 31.713L102.021 31.7061L102.033 31.6992L98.9229 26.568ZM92.4429 25.2L87.6126 28.7592L87.6277 28.7797L87.6429 28.8L92.4429 25.2ZM93.4869 12.06L98.311 15.6278L98.3198 15.6158L98.3285 15.6039L93.4869 12.06ZM103.819 12.204L109.623 13.7263L111.09 8.13161L105.553 6.46003L103.819 12.204ZM96.5469 12.816L92.5533 8.33823L91.5098 9.26884L90.9853 10.5648L96.5469 12.816ZM95.8269 22.32L90.0766 24.0329L90.0933 24.0887L90.111 24.1442L95.8269 22.32ZM100.687 20.304L95.3942 17.4778L100.687 20.304ZM102.694 8.6726C101.942 11.8738 101.563 15.1058 101.563 18.36H113.563C113.563 16.0462 113.832 13.7342 114.376 11.4154L102.694 8.6726ZM101.563 18.36C101.563 21.5766 101.927 24.7638 102.652 27.9134L114.346 25.2226C113.823 22.9482 113.563 20.6634 113.563 18.36H101.563ZM106.602 20.8759C106.35 20.9597 106.103 21 105.835 21V33C107.391 33 108.92 32.7523 110.396 32.2601L106.602 20.8759ZM105.835 21C105.926 21 106.368 21.0089 106.974 21.2605C107.646 21.5392 108.356 22.0533 108.884 22.828L98.9696 29.588C100.878 32.3868 103.85 33 105.835 33V21ZM108.953 22.9304C109.23 23.3554 109.333 23.7066 109.368 23.8598C109.403 24.0089 109.387 24.0292 109.387 23.868H97.3869C97.3869 25.4673 97.6519 27.5699 98.9013 29.4856L108.953 22.9304ZM109.387 23.868C109.387 23.3485 109.475 22.3404 109.764 20.6942L97.9454 18.6178C97.6106 20.5236 97.3869 22.3235 97.3869 23.868H109.387ZM98.4188 17.1167C97.6625 18.7358 97.0013 19.8761 96.4598 20.635C95.8861 21.439 95.6391 21.5423 95.8131 21.4368L102.033 31.6992C105.281 29.7303 107.552 25.9183 109.291 22.1953L98.4188 17.1167ZM95.836 21.423C95.882 21.3954 95.9885 21.3394 96.1521 21.2919C96.3189 21.2435 96.5039 21.216 96.6909 21.216V33.216C98.6466 33.216 100.447 32.6506 102.01 31.713L95.836 21.423ZM96.6909 21.216C96.5237 21.216 96.616 21.1883 96.8334 21.2914C96.9355 21.3399 97.0313 21.4018 97.1121 21.4689C97.1913 21.5348 97.2327 21.5864 97.2429 21.6L87.6429 28.8C89.892 31.7988 93.1659 33.216 96.6909 33.216V21.216ZM97.2733 21.6408C97.159 21.4857 96.9309 21.1051 96.9309 20.124H84.9309C84.9309 23.1749 85.7109 26.1783 87.6126 28.7592L97.2733 21.6408ZM96.9309 20.124C96.9309 18.2383 97.4271 16.8228 98.311 15.6278L88.6629 8.49224C86.1388 11.9052 84.9309 15.8657 84.9309 20.124H96.9309ZM98.3285 15.6039C98.9869 14.7044 99.4506 14.568 100.111 14.568V2.568C95.3473 2.568 91.395 4.7596 88.6453 8.51615L98.3285 15.6039ZM100.111 14.568C102.117 14.568 104.27 14.9273 106.595 15.7217L110.475 4.36625C107.04 3.19267 103.577 2.568 100.111 2.568V14.568ZM105.553 6.46003C103.968 5.98166 102.268 5.628 100.579 5.628V17.628C100.666 17.628 101.126 17.6583 102.085 17.948L105.553 6.46003ZM100.579 5.628C98.0375 5.628 94.9855 6.16893 92.5533 8.33823L100.541 17.2938C100.384 17.4338 100.235 17.5302 100.118 17.5927C100.002 17.654 99.9284 17.6769 99.9167 17.6804C99.9062 17.6835 99.9507 17.6695 100.064 17.6552C100.178 17.6409 100.347 17.628 100.579 17.628V5.628ZM90.9853 10.5648C89.892 13.2658 89.3229 16.0804 89.3229 18.972H101.323C101.323 17.6876 101.57 16.3982 102.109 15.0672L90.9853 10.5648ZM89.3229 18.972C89.3229 20.6931 89.586 22.3857 90.0766 24.0329L101.577 20.6071C101.396 19.9983 101.323 19.4589 101.323 18.972H89.3229ZM90.111 24.1442C90.6729 25.9051 92.5893 30.012 97.4469 30.012V18.012C98.0745 18.012 98.7451 18.1403 99.392 18.4299C100.029 18.7148 100.505 19.0939 100.836 19.4396C101.439 20.0698 101.576 20.5986 101.543 20.4958L90.111 24.1442ZM97.4469 30.012C100.669 30.012 102.7 27.8404 103.405 27.0329C104.383 25.9142 105.233 24.5285 105.98 23.1302L95.3942 17.4778C95.1235 17.9849 94.8933 18.3751 94.705 18.6661C94.5116 18.9648 94.3977 19.1039 94.3688 19.1371C94.3219 19.1908 94.4846 18.986 94.8742 18.7352C95.2652 18.4835 96.1606 18.012 97.4469 18.012V30.012ZM105.98 23.1302C107.537 20.2134 108.745 17.0714 109.623 13.7263L98.0153 10.6817C97.3567 13.1926 96.4767 15.4506 95.3942 17.4778L105.98 23.1302ZM116.992 26.568L119.158 32.1634L124.098 30.2513L122.813 25.1128L116.992 26.568ZM112.564 26.424L108.789 31.0875L108.91 31.1851L109.035 31.2764L112.564 26.424ZM112.132 20.88L106.172 20.1923L112.132 20.88ZM111.628 9.216L109.521 3.59803L104.593 5.44634L105.784 10.5738L111.628 9.216ZM115.804 9.54L111.661 13.8801L111.709 13.9261L111.759 13.9709L115.804 9.54ZM116.416 13.5L122.33 14.5138L122.332 14.5001L122.334 14.4864L116.416 13.5ZM116.164 15.408L110.173 15.0752L121.66 17.8162L116.164 15.408ZM119.476 10.404L123.593 14.7684L123.596 14.7661L119.476 10.404ZM125.452 9.504L120.872 13.3797H120.872L125.452 9.504ZM125.524 14.184L130.133 18.0251L130.172 17.979L130.209 17.9322L125.524 14.184ZM122.032 14.832L116.211 13.3768L114.864 18.7671L120.135 20.5241L122.032 14.832ZM118.108 15.768L112.613 13.3598L112.606 13.3746L112.6 13.3894L118.108 15.768ZM116.272 21.708L110.356 20.7091L110.239 21.404L110.285 22.1071L116.272 21.708ZM114.826 20.9726C114.809 20.9792 114.755 21 114.616 21V33C116.157 33 117.687 32.7328 119.158 32.1634L114.826 20.9726ZM114.616 21C114.68 21 115.336 21.0209 116.093 21.5716L109.035 31.2764C110.848 32.5951 112.872 33 114.616 33V21ZM116.339 21.7605C116.758 22.0995 117.17 22.5865 117.455 23.2122C117.735 23.8255 117.808 24.3822 117.808 24.768H105.808C105.808 27.1223 106.764 29.4478 108.789 31.0875L116.339 21.7605ZM117.808 24.768C117.808 24.4377 117.874 23.4618 118.093 21.5677L106.172 20.1923C105.958 22.0422 105.808 23.6583 105.808 24.768H117.808ZM118.093 21.5677C118.333 19.4844 118.456 17.4423 118.456 15.444H106.456C106.456 16.9497 106.363 18.5316 106.172 20.1923L118.093 21.5677ZM118.456 15.444C118.456 13.0772 118.092 10.5268 117.472 7.85822L105.784 10.5738C106.268 12.6572 106.456 14.2588 106.456 15.444H118.456ZM113.735 14.834C113.82 14.802 113.872 14.7901 113.894 14.786C113.914 14.7821 113.914 14.784 113.896 14.784V2.784C112.363 2.784 110.894 3.08324 109.521 3.59803L113.735 14.834ZM113.896 14.784C113.578 14.784 113.166 14.7274 112.721 14.5511C112.274 14.374 111.918 14.1252 111.661 13.8801L119.947 5.19987C118.279 3.60781 116.15 2.784 113.896 2.784V14.784ZM111.759 13.9709C111.4 13.6434 111.083 13.209 110.875 12.7015C110.673 12.2103 110.632 11.797 110.632 11.556H122.632C122.632 9.26129 121.808 6.89697 119.85 5.10909L111.759 13.9709ZM110.632 11.556C110.632 11.4697 110.637 11.5008 110.615 11.7034C110.594 11.8896 110.557 12.1553 110.498 12.5136L122.334 14.4864C122.489 13.5565 122.632 12.5056 122.632 11.556H110.632ZM110.502 12.4862C110.349 13.38 110.217 14.2899 110.173 15.0752L122.155 15.7408C122.155 15.7416 122.156 15.7132 122.163 15.6494C122.169 15.587 122.179 15.5023 122.193 15.3926C122.223 15.1709 122.267 14.8809 122.33 14.5138L110.502 12.4862ZM121.66 17.8162C122.374 16.1852 123.068 15.2642 123.593 14.7684L115.359 6.03964C113.34 7.94382 111.826 10.3588 110.669 12.9998L121.66 17.8162ZM123.596 14.7661C123.899 14.4797 124.037 14.422 123.993 14.4432C123.965 14.4562 123.89 14.4889 123.769 14.5178C123.646 14.5473 123.496 14.568 123.328 14.568V2.568C120.001 2.568 117.316 4.19075 115.356 6.04192L123.596 14.7661ZM123.328 14.568C123.061 14.568 122.619 14.5186 122.106 14.2925C121.579 14.0605 121.162 13.7227 120.872 13.3797L130.032 5.62835C128.257 3.5305 125.808 2.568 123.328 2.568V14.568ZM120.872 13.3797C120.632 13.0964 120.458 12.7757 120.354 12.4634C120.254 12.1636 120.244 11.95 120.244 11.88H132.244C132.244 9.76117 131.632 7.51907 130.032 5.62835L120.872 13.3797ZM120.244 11.88C120.244 11.8378 120.249 11.6493 120.337 11.3683C120.429 11.0745 120.591 10.7455 120.839 10.4358L130.209 17.9322C131.714 16.0513 132.244 13.8718 132.244 11.88H120.244ZM120.915 10.3429C121.156 10.0538 121.549 9.69569 122.118 9.42286C122.693 9.14679 123.26 9.048 123.724 9.048V21.048C126.308 21.048 128.568 19.904 130.133 18.0251L120.915 10.3429ZM123.724 9.048C123.576 9.048 123.521 9.03996 123.539 9.0423C123.55 9.04376 123.59 9.04918 123.653 9.06281C123.715 9.07636 123.81 9.09997 123.929 9.1399L120.135 20.5241C121.412 20.9498 122.687 21.048 123.724 21.048V9.048ZM127.853 16.2872C128.017 15.6306 128.14 14.8701 128.14 14.04H116.14C116.14 13.6899 116.191 13.4574 116.211 13.3768L127.853 16.2872ZM128.14 14.04C128.14 13.0233 127.993 11.1869 126.778 9.46821C125.293 7.3686 123.045 6.564 121.096 6.564V18.564C120.565 18.564 119.812 18.4689 118.995 18.0837C118.147 17.684 117.464 17.0811 116.981 16.3978C116.113 15.1711 116.14 14.0727 116.14 14.04H128.14ZM121.096 6.564C118.345 6.564 116.354 8.0023 115.169 9.27285C114.018 10.5073 113.21 11.9964 112.613 13.3598L123.604 18.1762C123.942 17.4036 124.1 17.2907 123.945 17.4572C123.756 17.6597 122.791 18.564 121.096 18.564V6.564ZM112.6 13.3894C111.538 15.8474 110.764 18.2935 110.356 20.7091L122.188 22.7069C122.405 21.4265 122.854 19.9126 123.617 18.1466L112.6 13.3894ZM110.285 22.1071C110.424 24.1903 110.709 26.1724 111.171 28.0232L122.813 25.1128C122.556 24.0836 122.36 22.8257 122.259 21.3089L110.285 22.1071ZM131.393 18.828L132.056 12.8647L125.393 12.1244V18.828H131.393ZM132.221 22.932L126.959 25.8139L126.973 25.8408L126.988 25.8675L132.221 22.932ZM138.017 23.112L133.418 19.2587L133.413 19.2648L133.408 19.2709L138.017 23.112ZM139.133 19.908V13.908H133.133V19.908H139.133ZM141.257 20.52L137.883 25.4816V25.4816L141.257 20.52ZM139.781 25.956L142.947 31.0526L142.975 31.0355L143.003 31.018L139.781 25.956ZM128.837 25.236L124.204 29.0476L124.219 29.0661L124.234 29.0845L128.837 25.236ZM129.449 11.34L124.835 7.50436L124.831 7.50998L129.449 11.34ZM140.537 9.648L136.889 14.4113L136.945 14.4543L137.002 14.496L140.537 9.648ZM139.817 17.64L142.718 22.8923L142.731 22.885L142.744 22.8777L139.817 17.64ZM131.429 15.984H125.429V20.9028L130.253 21.8675L131.429 15.984ZM138.053 15.228L140.949 20.483L143.24 19.2207L143.874 16.6832L138.053 15.228ZM137.369 11.952L140.875 7.0828V7.08279L137.369 11.952ZM132.077 12.312L128.329 7.62679L126.975 8.71029L126.407 10.3493L132.077 12.312ZM125.393 18.828C125.393 21.0962 125.739 23.5875 126.959 25.8139L137.484 20.0501C137.553 20.1762 137.525 20.1768 137.482 19.9634C137.439 19.7493 137.393 19.3835 137.393 18.828H125.393ZM126.988 25.8675C128.779 29.0602 131.915 30.408 134.993 30.408V18.408C135.098 18.408 135.559 18.4294 136.148 18.743C136.779 19.0789 137.214 19.5682 137.454 19.9965L126.988 25.8675ZM134.993 30.408C137.767 30.408 140.586 29.402 142.627 26.9531L133.408 19.2709C133.638 18.9949 133.969 18.7358 134.358 18.5691C134.724 18.4123 134.974 18.408 134.993 18.408V30.408ZM142.616 26.9653C144.338 24.9106 145.133 22.4478 145.133 19.908H133.133C133.133 19.9293 133.131 19.8342 133.188 19.6714C133.247 19.5026 133.335 19.3577 133.418 19.2587L142.616 26.9653ZM139.133 25.908C139.039 25.908 138.856 25.8957 138.615 25.8264C138.369 25.7555 138.116 25.64 137.883 25.4816L144.631 15.5584C142.915 14.3913 140.997 13.908 139.133 13.908V25.908ZM137.883 25.4816C137.488 25.2129 137.001 24.7556 136.635 24.0667C136.268 23.376 136.157 22.7081 136.157 22.212H148.157C148.157 19.4869 146.859 17.0731 144.631 15.5584L137.883 25.4816ZM136.157 22.212C136.157 22.0449 136.18 21.8387 136.245 21.6147C136.31 21.3903 136.402 21.1987 136.497 21.0491C136.683 20.7568 136.803 20.7392 136.56 20.894L143.003 31.018C145.801 29.2373 148.157 26.2966 148.157 22.212H136.157ZM136.615 20.8594C135.918 21.2926 135.337 21.432 134.777 21.432V33.432C137.721 33.432 140.477 32.5874 142.947 31.0526L136.615 20.8594ZM134.777 21.432C133.92 21.432 133.48 21.3142 133.321 21.2553C133.206 21.2127 133.312 21.2334 133.44 21.3875L124.234 29.0845C127.026 32.4244 131.062 33.432 134.777 33.432V21.432ZM133.471 21.4244C133.47 21.4236 133.464 21.416 133.453 21.3989C133.442 21.3817 133.425 21.3533 133.404 21.311C133.362 21.226 133.301 21.0826 133.24 20.8623C133.114 20.4091 133.001 19.6965 133.001 18.648H121.001C121.001 22.2657 121.745 26.059 124.204 29.0476L133.471 21.4244ZM133.001 18.648C133.001 16.9414 133.449 15.916 134.068 15.17L124.831 7.50998C122.185 10.7 121.001 14.5466 121.001 18.648H133.001ZM134.063 15.1756C134.508 14.6408 134.97 14.352 136.037 14.352V2.352C131.633 2.352 127.703 4.05523 124.835 7.50436L134.063 15.1756ZM136.037 14.352C136.519 14.352 136.79 14.4084 136.906 14.4417C137.007 14.4709 136.975 14.4774 136.889 14.4113L144.186 4.88473C141.721 2.99669 138.81 2.352 136.037 2.352V14.352ZM137.002 14.496C136.873 14.4019 136.735 14.2749 136.608 14.1162C136.481 13.9577 136.392 13.801 136.334 13.6677C136.22 13.4069 136.265 13.334 136.265 13.608H148.265C148.265 10.4502 147.176 7.06274 144.072 4.79995L137.002 14.496ZM136.265 13.608C136.265 13.5435 136.291 13.218 136.525 12.8341C136.748 12.4658 136.973 12.3563 136.89 12.4023L142.744 22.8777C146.15 20.9743 148.265 17.6955 148.265 13.608H136.265ZM136.917 12.3877C136.404 12.6711 135.493 12.972 133.913 12.972V24.972C136.99 24.972 140.015 24.3849 142.718 22.8923L136.917 12.3877ZM133.913 12.972C133.332 12.972 132.714 12.9378 132.056 12.8647L130.731 24.7913C131.801 24.9102 132.862 24.972 133.913 24.972V12.972ZM130.253 21.8675C131.389 22.0948 132.541 22.2 133.697 22.2V10.2C133.27 10.2 132.91 10.1612 132.606 10.1005L130.253 21.8675ZM133.697 22.2C136.155 22.2 138.667 21.7403 140.949 20.483L135.158 9.97297C135.087 10.0117 134.696 10.2 133.697 10.2V22.2ZM143.874 16.6832C144.061 15.9349 144.269 14.9234 144.269 13.86H132.269C132.269 13.7334 132.276 13.6412 132.28 13.5913C132.285 13.5401 132.289 13.5144 132.289 13.5182C132.288 13.5214 132.284 13.5443 132.275 13.5893C132.266 13.6339 132.252 13.6946 132.232 13.7728L143.874 16.6832ZM144.269 13.86C144.269 11.3929 143.272 8.80825 140.875 7.0828L133.863 16.8212C133.382 16.4743 132.924 15.9627 132.618 15.3127C132.324 14.6895 132.269 14.1551 132.269 13.86H144.269ZM140.875 7.08279C138.901 5.66119 136.68 5.304 134.885 5.304V17.304C135.202 17.304 134.638 17.3788 133.863 16.8212L140.875 7.08279ZM134.885 5.304C132.43 5.304 130.184 6.14262 128.329 7.62679L135.825 16.9972C135.771 17.0408 135.64 17.13 135.436 17.2032C135.23 17.2774 135.034 17.304 134.885 17.304V5.304ZM126.407 10.3493C125.779 12.1654 125.429 14.0522 125.429 15.984H137.429C137.429 15.5158 137.512 14.9546 137.747 14.2747L126.407 10.3493Z" fill="white"/>
</svg>
